<svg width="20" height="20" viewBox="0 0 20 20" fill="none" xmlns="http://www.w3.org/2000/svg">
<g clip-path="url(#clip0_4268_8127)">
<path d="M8.70547 2.83042L1.45254 15.3925C0.87703 16.3891 1.59654 17.6348 2.74707 17.6348H17.2529C18.4035 17.6348 19.123 16.3891 18.5475 15.3925L11.295 2.83042C10.7195 1.83387 9.28148 1.83387 8.70597 2.83042H8.70547Z" fill="#FF5151"/>
<path d="M9.29404 3.48389L2.31267 15.5761C1.99875 16.1197 2.3909 16.7994 3.01873 16.7994H16.9815C17.6093 16.7994 18.0014 16.1197 17.6875 15.5761L10.7067 3.48389C10.3927 2.94027 9.60796 2.94027 9.29404 3.48389V3.48389Z" stroke="white" stroke-width="0.5" stroke-miterlimit="10"/>
<path d="M9.63123 12.8948L9.27197 9.31568V7.81836H10.7274V9.31568L10.3881 12.8948H9.63073H9.63123ZM9.32429 14.5715V13.6273H10.6756V14.5715H9.32429Z" fill="white"/>
<path d="M9.27246 7.85103C9.27246 7.44892 9.59833 7.12305 10.0004 7.12305C10.4026 7.12305 10.7284 7.44892 10.7284 7.85103" fill="white"/>
</g>
<defs>
<clipPath id="clip0_4268_8127">
<rect width="20" height="20" fill="white"/>
</clipPath>
</defs>
</svg>
