<svg width="20" height="20" viewBox="0 0 20 20" fill="none" xmlns="http://www.w3.org/2000/svg">
<path d="M17.5646 8.40188V5.66514H13.2992L12.3585 9.37356L10.3063 9.75671L7.07907 4.16699L7.07611 4.16847V4.16699H1.25V14.0689H4.80378L6.50532 12.3674H5.47602L3.61935 9.41739H2.56248V5.89562H6.65996L9.82271 11.374V12.7811H18.7495V8.18075L17.5641 8.40188H17.5646ZM13.8355 6.35462H16.8751V8.53042L13.1056 9.23418L13.836 6.35462H13.8355Z" fill="#70D36E" stroke="#70D36E" stroke-miterlimit="10"/>
<path d="M18.0699 14.167H10.2636C9.65809 14.167 9.16675 14.54 9.16675 15.0003C9.16675 15.4606 9.65755 15.8337 10.2636 15.8337H18.0699C18.6754 15.8337 19.1667 15.4606 19.1667 15.0003C19.1667 14.54 18.6759 14.167 18.0699 14.167Z" fill="#70D36E" stroke="#70D36E" stroke-miterlimit="10"/>
</svg>
