<svg width="36" height="36" viewBox="0 0 36 36" fill="none" xmlns="http://www.w3.org/2000/svg">
<path d="M27.2821 12.0459H8.71647C7.9729 12.0459 7.37012 12.6487 7.37012 13.3923V13.7084C7.37012 14.452 7.9729 15.0547 8.71647 15.0547H27.2821C28.0256 15.0547 28.6284 14.452 28.6284 13.7084V13.3923C28.6284 12.6487 28.0256 12.0459 27.2821 12.0459Z" fill="#7C6ED3"/>
<path d="M9.08496 12.4059C9.08496 7.40297 13.1413 3.34668 18.1442 3.34668C23.1472 3.34668 27.2035 7.40297 27.2035 12.4059" fill="#7C6ED3"/>
<path d="M19.6372 2.25H16.6887C15.9494 2.25 15.3501 2.84931 15.3501 3.5886V3.90387C15.3501 4.64316 15.9494 5.24248 16.6887 5.24248H19.6372C20.3765 5.24248 20.9758 4.64316 20.9758 3.90387V3.5886C20.9758 2.84931 20.3765 2.25 19.6372 2.25Z" fill="#7C6ED3"/>
<path d="M15.3337 3.99983C15.3337 3.52315 14.9472 3.13672 14.4705 3.13672C13.9939 3.13672 13.6074 3.52315 13.6074 3.99983V7.89936C13.6074 8.37604 13.9939 8.76247 14.4705 8.76247C14.9472 8.76247 15.3337 8.37604 15.3337 7.89936V3.99983Z" fill="#EAF2FF"/>
<path d="M22.7013 3.99983C22.7013 3.52315 22.3149 3.13672 21.8382 3.13672C21.3615 3.13672 20.9751 3.52315 20.9751 3.99983V7.89936C20.9751 8.37604 21.3615 8.76247 21.8382 8.76247C22.3149 8.76247 22.7013 8.37604 22.7013 7.89936V3.99983Z" fill="#EAF2FF"/>
<path d="M26.3888 16.9492C26.3888 21.518 22.6323 25.2212 17.9988 25.2212C13.3654 25.2212 9.60889 21.518 9.60889 16.9492" fill="#7C6ED3"/>
<path d="M2.24854 33.7728C2.24854 30.1472 9.30075 27.209 17.9999 27.209C26.6991 27.209 33.7514 30.1481 33.7514 33.7728" fill="#7C6ED3"/>
</svg>
