<svg width="24" height="24" viewBox="0 0 24 24" fill="none" xmlns="http://www.w3.org/2000/svg">
<path d="M20.4437 19.6299H7.25537V22.0002H20.4437V19.6299Z" fill="#3988FF"/>
<path d="M22 6.87012H1.50244V8.05526H22V6.87012Z" fill="#3988FF"/>
<path d="M15.9299 2.5H14.1182V7.00774H15.9299V2.5Z" fill="#3988FF"/>
<path d="M13.1803 7.74219H12.5916V21.0952H13.1803V7.74219Z" fill="#3988FF"/>
<path d="M4.23141 7.74219H3.83179V14.8027H4.23141V7.74219Z" fill="#3988FF"/>
<path d="M14.661 3.28959L14.4827 2.85742L2.3899 7.0466L2.56821 7.47876L14.661 3.28959Z" fill="#3988FF"/>
<path d="M21.0802 7.46905L21.3979 7.11035L15.528 2.74397L15.2102 3.10267L21.0802 7.46905Z" fill="#3988FF"/>
<path d="M17.1282 10.6156V10.0762H12.7457V10.6156H17.1282Z" fill="#3988FF"/>
<path d="M5.30347 8.5951V8.05566H2.76088V8.5951H5.30347Z" fill="#3988FF"/>
<path d="M4.91455 14.3397V12.5322H3.14842V14.3397H4.91455Z" fill="#3988FF"/>
<path d="M17.0447 8.01349L16.6885 7.58398L13.0491 10.1179L13.4053 10.5475L17.0447 8.01349Z" fill="#3988FF"/>
<path d="M17.0454 10.7127L16.6892 10.2832L13.0162 12.8406L13.3724 13.2701L17.0454 10.7127Z" fill="#3988FF"/>
<path d="M17.0454 13.74L16.6892 13.3105L13.0498 15.8445L13.406 16.274L17.0454 13.74Z" fill="#3988FF"/>
<path d="M17.0456 16.5389L16.6895 16.1094L13.0501 18.6433L13.4062 19.0728L17.0456 16.5389Z" fill="#3988FF"/>
<path d="M17.1274 13.4984V12.959H12.745V13.4984H17.1274Z" fill="#3988FF"/>
<path d="M17.1274 16.3822V15.8428H12.745V16.3822H17.1274Z" fill="#3988FF"/>
<path d="M17.3333 7.74219H16.7446V21.0952H17.3333V7.74219Z" fill="#3988FF"/>
<path d="M14.9577 19.6293H11.5005L12.5807 18.0596H14.9577V19.6293Z" fill="#3988FF"/>
<path d="M14.9575 19.6293H18.4147L17.3352 18.0596H14.9575V19.6293Z" fill="#3988FF"/>
<path d="M4.03219 14.5586C3.96111 14.5586 3.89205 14.566 3.82433 14.5776L3.8934 14.8148C3.93832 14.808 3.98458 14.8019 4.03152 14.8019C4.49484 14.8019 4.87033 15.1459 4.87033 15.5705C4.87033 15.995 4.49484 16.3391 4.03152 16.3391C3.56819 16.3391 3.19271 15.995 3.19271 15.5705C3.19271 15.549 3.19807 15.5287 3.19941 15.5078L2.94059 15.4445C2.93456 15.4863 2.92651 15.5275 2.92651 15.5711C2.92651 16.1302 3.42135 16.5836 4.03152 16.5836C4.64168 16.5836 5.13652 16.1302 5.13652 15.5711C5.13652 15.012 4.64168 14.5586 4.03152 14.5586H4.03219Z" fill="#3988FF"/>
</svg>
