<svg width="36" height="36" viewBox="0 0 36 36" fill="none" xmlns="http://www.w3.org/2000/svg">
<path d="M33.75 30.2969H2.25V33.6715H33.75V30.2969Z" fill="#FFD952"/>
<path d="M12.5495 11.9277H11.3981L9.82666 16.896H10.9781L12.5495 11.9277Z" fill="#FFD952"/>
<path d="M10.9777 16.8955H9.82629L8.25488 21.8638H9.40628L10.9777 16.8955Z" fill="#FFD952"/>
<path d="M14.1208 6.95898H12.9694L11.3979 11.9273H12.5493L14.1208 6.95898Z" fill="#FFD952"/>
<path d="M23.4508 11.9273H24.6022L23.0308 6.95898H21.8794L23.4508 11.9273Z" fill="#FFD952"/>
<path d="M25.0221 16.896H26.1735L24.6021 11.9277H23.4507L25.0221 16.896Z" fill="#FFD952"/>
<path d="M14.9846 4.22944H18H21.0162L21.8793 6.95909H23.0307L21.5406 2.25H18H14.4594L12.9692 6.95909H14.1206L14.9846 4.22944Z" fill="#FFD952"/>
<path d="M25.022 16.8955L26.5942 21.8638H27.7448L26.1734 16.8955H25.022Z" fill="#FFD952"/>
<path d="M28.2069 26.9634H18.0001H7.79319L9.40651 21.8643H8.25512L6.01562 28.9429H18.0001H29.9845L27.745 21.8643H26.5945L28.2069 26.9634Z" fill="#FFD952"/>
<path d="M9.40674 21.8638H26.5947L25.0224 16.8955H10.9781L9.40674 21.8638Z" fill="white"/>
<path d="M21.0161 4.22949H17.9999H14.9846L14.1206 6.95914H21.8793L21.0161 4.22949Z" fill="#FFD952"/>
<path d="M7.79297 26.9634H17.9998H28.2067L26.5943 21.8643H9.4063L7.79297 26.9634Z" fill="#FFD952"/>
<path d="M12.5494 11.9277L10.978 16.896H25.0223L23.4509 11.9277H12.5494Z" fill="#FFD952"/>
<path d="M21.8794 6.95898H14.1207L12.5493 11.9273H23.4508L21.8794 6.95898Z" fill="white"/>
</svg>
