<svg width="20" height="20" viewBox="0 0 20 20" fill="none" xmlns="http://www.w3.org/2000/svg">
<path d="M5.96737 2.91699H3.48877V16.2341H5.96737V2.91699Z" fill="#F49C18"/>
<path d="M16.4701 2.91699H13.9915V16.2341H16.4701V2.91699Z" fill="#F49C18"/>
<path d="M18.039 16.2344H1.95557V17.2316H18.039V16.2344Z" fill="#F49C18"/>
<path d="M10.9548 4.11426L6.40308 10.626H9.50367L14.0554 4.11426H10.9548Z" fill="white"/>
<path d="M7.85474 4.11426L3.30298 10.626H6.40308L10.9548 4.11426H7.85474Z" fill="#F49C18"/>
<path d="M1.25 4.11426V9.12733L4.75405 4.11426H1.25Z" fill="#F49C18"/>
<path d="M4.75405 4.11426L1.25 9.12733V10.626H3.30289L7.85465 4.11426H4.75405Z" fill="white"/>
<path d="M18.7501 6.26855L15.7043 10.6255H18.7501V6.26855Z" fill="#F49C18"/>
<path d="M18.7501 4.11426H17.156L12.6042 10.626H15.7043L18.7501 6.269V4.11426Z" fill="white"/>
<path d="M14.0554 4.11426L9.50366 10.626H12.6043L17.156 4.11426H14.0554Z" fill="#F49C18"/>
<path d="M17.1559 4.11426H14.0553H10.9548H7.85465H4.75405H1.25V9.12733V10.626H3.30289H6.40299H9.50359H12.6042H15.7043H18.75V6.269V4.11426H17.1559Z" stroke="#F49C18" stroke-miterlimit="10"/>
</svg>
